<svg width="16" height="16" viewBox="0 0 16 16" fill="none" xmlns="http://www.w3.org/2000/svg">
<path d="M13.5393 11.8053C14.7973 10.44 14.6706 8.68663 14.6666 8.66663V3.33329C14.6666 3.15648 14.5964 2.98691 14.4714 2.86189C14.3463 2.73686 14.1768 2.66663 14 2.66663H9.99996C9.26462 2.66663 8.66662 3.26463 8.66662 3.99996V8.66663C8.66662 8.84344 8.73686 9.01301 8.86188 9.13803C8.98691 9.26305 9.15648 9.33329 9.33329 9.33329H11.3853C11.3712 9.66288 11.2727 9.98334 11.0993 10.264C10.7606 10.798 10.1226 11.1626 9.20195 11.3466L8.66662 11.4533V13.3333H9.33329C11.1886 13.3333 12.604 12.8193 13.5393 11.8053ZM6.20129 11.8053C7.45995 10.44 7.33262 8.68663 7.32862 8.66663V3.33329C7.32862 3.15648 7.25838 2.98691 7.13336 2.86189C7.00833 2.73686 6.83877 2.66663 6.66195 2.66663H2.66195C1.92662 2.66663 1.32862 3.26463 1.32862 3.99996V9.11107C1.32862 9.11107 1.32063 9.23757 1.37847 9.28815C1.43188 9.33486 1.55817 9.33329 1.55817 9.33329C1.73498 9.33329 4.04729 9.33329 4.04729 9.33329C4.0332 9.66288 3.93473 9.98334 3.76129 10.264C3.42262 10.798 2.78462 11.1626 1.86395 11.3466L1.32862 11.4533V13.3333H1.99529C3.85062 13.3333 5.26595 12.8193 6.20129 11.8053Z" fill="#ACB0B9"/>
</svg>
